<svg width="197" height="197" viewBox="0 0 197 197" fill="none" xmlns="http://www.w3.org/2000/svg">
<circle cx="98.5" cy="98.5" r="98.5" fill="#6CC2FF"/>
<path fill-rule="evenodd" clip-rule="evenodd" d="M68.3736 102.636L58.9868 112.023C58.1684 112.841 58.1684 114.168 58.9868 114.987L82.5901 138.59C83.4085 139.408 84.7355 139.408 85.5539 138.59L94.9407 129.203C95.7592 128.385 95.7592 127.058 94.9407 126.239L71.3375 102.636C70.519 101.818 69.1921 101.818 68.3736 102.636ZM56.023 109.059C53.5676 111.514 53.5676 115.495 56.023 117.951L79.6262 141.554C82.0816 144.009 86.0625 144.009 88.5178 141.554L97.9046 132.167C100.36 129.712 100.36 125.731 97.9046 123.275L74.3013 99.6722C71.846 97.2169 67.8651 97.2169 65.4098 99.6722L56.023 109.059Z" fill="#1C1B1B"/>
<path fill-rule="evenodd" clip-rule="evenodd" d="M111.023 59.9871L101.636 69.3739C100.818 70.1924 100.818 71.5193 101.636 72.3378L125.24 95.941C126.058 96.7595 127.385 96.7595 128.204 95.941L137.59 86.5542C138.409 85.7358 138.409 84.4088 137.59 83.5904L113.987 59.9871C113.169 59.1687 111.842 59.1687 111.023 59.9871ZM98.6726 66.4101C96.2173 68.8654 96.2173 72.8463 98.6726 75.3016L122.276 98.9049C124.731 101.36 128.712 101.36 131.167 98.9049L140.554 89.5181C143.01 87.0627 143.01 83.0819 140.554 80.6266L116.951 57.0233C114.496 54.5679 110.515 54.568 108.059 57.0233L98.6726 66.4101Z" fill="#1C1B1B"/>
<path fill-rule="evenodd" clip-rule="evenodd" d="M81.3904 111.439C80.572 110.621 80.572 109.294 81.3904 108.476L107.299 82.5672C108.117 81.7488 109.444 81.7488 110.263 82.5672C111.081 83.3856 111.081 84.7126 110.263 85.531L84.3543 111.439C83.5358 112.258 82.2089 112.258 81.3904 111.439Z" fill="#1C1B1B"/>
<path fill-rule="evenodd" clip-rule="evenodd" d="M85.9626 116.011C85.1442 115.193 85.1442 113.866 85.9626 113.047L111.871 87.1391C112.689 86.3207 114.016 86.3207 114.835 87.1391C115.653 87.9575 115.653 89.2845 114.835 90.1029L88.9265 116.011C88.108 116.83 86.7811 116.83 85.9626 116.011Z" fill="#1C1B1B"/>
</svg>
