<svg width="197" height="197" viewBox="0 0 197 197" fill="none" xmlns="http://www.w3.org/2000/svg">
<circle cx="98.5" cy="98.5" r="98" fill="#80F075" stroke="#1C1B1B"/>
<path fill-rule="evenodd" clip-rule="evenodd" d="M93.5497 55.2214C93.9051 54.4753 94.6579 54 95.4844 54H108.091C108.498 54 108.897 54.1162 109.241 54.3349L117.968 59.8874C118.225 60.0507 118.444 60.2668 118.61 60.5213L133.156 82.7312C133.237 82.8541 133.304 82.9849 133.358 83.1216L142.085 105.331C142.109 105.392 142.13 105.454 142.148 105.516C143.053 108.624 143.521 113.591 142.079 118.666C140.615 123.82 137.181 129.056 130.384 132.462C114.671 140.335 105.695 142.642 94.7365 143.782C89.1128 144.368 81.8168 143.781 74.9244 141.915C68.0683 140.059 61.2982 136.853 57.0215 131.956C55.3362 130.026 54.1986 127.111 53.5785 124.026C52.9482 120.89 52.8018 117.33 53.2943 113.92C53.7849 110.524 54.9311 107.134 57.0124 104.471C59.1375 101.752 62.1883 99.8672 66.2185 99.5375C72.4033 99.0316 76.6424 101.498 79.3008 104.872C80.2018 106.016 80.9128 107.251 81.4642 108.489C84.3559 104.017 89.6771 99.5303 98.3935 99.5303C104.645 99.5303 109.934 101.503 114.021 103.987C112.252 99.0701 110.814 92.9322 110.796 86.2498C110.643 84.9698 110.168 82.9485 109.247 81.0757C108.475 79.5083 107.491 78.241 106.3 77.4846L100.537 81.2563C99.6418 81.8418 98.4524 81.6781 97.7491 80.8727L88.0521 69.7678C87.4901 69.1242 87.3641 68.2082 87.7315 67.4369L93.5497 55.2214ZM118.94 114.005C119.618 114.976 120.954 115.213 121.924 114.535C122.894 113.857 123.131 112.521 122.453 111.551C120.065 108.132 115.082 98.0395 115.082 86.1263C115.082 86.0486 115.078 85.971 115.069 85.8937C114.885 84.2045 114.293 81.6245 113.092 79.1834C111.903 76.7674 109.962 74.1822 106.915 73.0193C106.273 72.7743 105.553 72.852 104.978 73.2282L99.7505 76.6489L92.206 68.0091L96.8372 58.2857H107.467L115.278 63.2555L129.45 84.8945L138.059 106.804C138.755 109.26 139.135 113.349 137.957 117.495C136.787 121.614 134.079 125.817 128.464 128.63C113.147 136.305 104.668 138.44 94.2928 139.52C89.2498 140.045 82.4851 139.522 76.0441 137.778C69.5668 136.025 63.7308 133.123 60.2497 129.137C59.2573 128 58.3287 125.911 57.7802 123.181C57.2417 120.502 57.1168 117.435 57.536 114.533C57.9573 111.616 58.9062 109.007 60.389 107.11C61.828 105.269 63.8103 104.035 66.5679 103.809C71.2439 103.426 74.116 105.217 75.9344 107.525C77.842 109.946 78.6604 113.053 78.8008 115.143C78.8723 116.207 79.7163 117.057 80.7805 117.136C81.8447 117.215 82.8048 116.499 83.0324 115.456C83.8749 111.597 88.1249 103.816 98.3935 103.816C109.129 103.816 116.624 110.69 118.94 114.005Z" fill="#1C1B1B"/>
</svg>
