<svg width="354" height="81" viewBox="0 0 354 81" fill="none" xmlns="http://www.w3.org/2000/svg">
<path d="M298.879 80.9142V1.22429H315.015V4.45196L315.232 4.56326C318.805 1.78079 323.57 0 328.876 0C342.413 0 354 11.1299 354 28.0473C354 45.5212 341.655 57.6528 325.952 57.6528C321.837 57.6528 318.372 56.7624 315.556 55.4268L315.34 55.5381V80.9142H298.879ZM315.34 41.6258C317.506 42.8501 320.646 43.8517 323.787 43.8517C332.666 43.8517 337.431 37.2851 337.431 29.049C337.431 20.8129 332.666 14.2463 324.436 14.2463C320.754 14.2463 317.506 15.6931 315.34 17.4739V41.6258Z" fill="#F2F2F2"/>
<path d="M257.2 57.6528C240.198 57.6528 227.528 45.076 227.528 28.8264C227.528 12.5768 240.198 0 257.2 0C274.202 0 286.872 12.5768 286.872 28.8264C286.872 45.076 274.202 57.6528 257.2 57.6528ZM257.2 43.0726C264.672 43.0726 270.412 36.7286 270.412 28.8264C270.412 20.9242 264.672 14.5802 257.2 14.5802C249.728 14.5802 243.988 20.9242 243.988 28.8264C243.988 36.7286 249.728 43.0726 257.2 43.0726Z" fill="#F2F2F2"/>
<path d="M130.187 56.4285V1.22429H146.431V5.78754L146.648 5.89884C150.763 2.55987 155.961 0 162.567 0C168.523 0 174.587 2.22598 177.944 7.56832C183.359 2.78247 189.748 0 196.787 0C202.743 0 207.508 2.00338 210.756 5.56494C214.005 9.12651 215.521 13.8011 215.521 21.7033V56.4285H199.061V24.4857C199.061 20.5903 198.519 18.5869 197.112 16.9174C195.704 15.2479 193.538 14.5802 191.264 14.5802C187.365 14.5802 183.683 16.4722 180.976 18.9208C181.084 19.5886 181.084 20.479 181.084 21.2581V56.4285H164.624V24.4857C164.624 20.7016 164.191 18.5869 162.675 16.9174C161.159 15.2479 159.101 14.5802 156.719 14.5802C153.037 14.5802 149.247 16.5835 146.648 18.9208V56.4285H130.187Z" fill="#F2F2F2"/>
<path d="M88.5074 57.6528C71.5056 57.6528 58.8355 45.076 58.8355 28.8264C58.8355 12.5768 71.5056 0 88.5074 0C105.509 0 118.179 12.5768 118.179 28.8264C118.179 45.076 105.509 57.6528 88.5074 57.6528ZM88.5074 43.0726C95.9796 43.0726 101.719 36.7286 101.719 28.8264C101.719 20.9242 95.9796 14.5802 88.5074 14.5802C81.0353 14.5802 75.2958 20.9242 75.2958 28.8264C75.2958 36.7286 81.0353 43.0726 88.5074 43.0726Z" fill="#F2F2F2"/>
<path fill-rule="evenodd" clip-rule="evenodd" d="M30.6186 58.0014C36.614 58.0014 42.4682 55.978 46.8285 53.0651V38.2562L46.8279 38.2566V32.6901H32.8714V39.7382C32.8714 41.5318 31.1733 42.9857 29.0786 42.9857C26.9838 42.9857 25.2857 41.5318 25.2857 39.7382V18.4189C25.2857 16.6254 26.9838 15.1714 29.0786 15.1714C31.1733 15.1714 32.8714 16.6254 32.8714 18.4189V25.2857H46.8279V18.5107L46.8285 18.5111V3.70222C42.6862 1.0134 36.7354 0 30.849 0C13.4079 0 0 11.6515 0 29.1289C0 45.934 12.5234 58.0014 30.6186 58.0014ZM15.1714 39.7382V18.4189C15.1714 16.6254 16.8695 15.1714 18.9643 15.1714C21.059 15.1714 22.7571 16.6254 22.7571 18.4189V39.7382C22.7571 41.5318 21.059 42.9857 18.9643 42.9857C16.8695 42.9857 15.1714 41.5318 15.1714 39.7382Z" fill="#F2F2F2"/>
</svg>
