<svg width="197" height="197" viewBox="0 0 197 197" fill="none" xmlns="http://www.w3.org/2000/svg">
<circle cx="98.5" cy="98.5" r="98.5" fill="#FFB952"/>
<path fill-rule="evenodd" clip-rule="evenodd" d="M81.1122 101.911C81.4482 101.125 82.2152 100.617 83.0634 100.617H110.954C111.728 100.617 112.441 101.041 112.815 101.725L131.143 135.255C131.524 135.952 131.491 136.805 131.056 137.469C130.621 138.134 129.857 138.5 129.072 138.422L118.012 137.312L110.729 143.496C110.218 143.93 109.534 144.097 108.882 143.945C108.231 143.794 107.688 143.342 107.418 142.725L98.1374 121.613L88.1705 142.776C87.8795 143.394 87.3136 143.835 86.6473 143.962C85.981 144.09 85.2943 143.889 84.7991 143.422L78.3449 137.332L68.962 138.418C68.2085 138.505 67.4661 138.181 67.0138 137.567C66.5616 136.953 66.4681 136.143 66.7685 135.44L81.1122 101.911ZM84.461 104.902L72.1253 133.738L78.8368 132.961C79.4562 132.89 80.0756 133.096 80.5309 133.526L85.5791 138.289L96.2845 115.557C96.6408 114.8 97.4014 114.323 98.2318 114.334C99.0622 114.345 99.8102 114.842 100.147 115.608L110.156 138.38L115.96 133.451C116.399 133.079 116.969 132.901 117.539 132.958L125.47 133.753L109.699 104.902H84.461Z" fill="black"/>
<path d="M130.875 86.2179C130.875 102.828 116.604 116.293 99 116.293C81.3959 116.293 67.125 102.828 67.125 86.2179C67.125 69.6079 81.3959 56.1428 99 56.1428C116.604 56.1428 130.875 69.6079 130.875 86.2179Z" fill="#FFB952"/>
<path fill-rule="evenodd" clip-rule="evenodd" d="M99 58.2857C82.4342 58.2857 69.25 70.9234 69.25 86.2179C69.25 101.513 82.4342 114.15 99 114.15C115.566 114.15 128.75 101.513 128.75 86.2179C128.75 70.9234 115.566 58.2857 99 58.2857ZM65 86.2179C65 68.2925 80.3576 54 99 54C117.642 54 133 68.2925 133 86.2179C133 104.143 117.642 118.436 99 118.436C80.3576 118.436 65 104.143 65 86.2179Z" fill="black"/>
</svg>
